# xmcd
#
# Track frame offsets:
# 150
# 18937
# 36801
# 53161
# 71620
# 90540
# 108332
# 124114
# 137913
# 155730
# 169512
# 187887
# 200904
# 213613
#
# Disc length: 3037 seconds
#
#
# Revision: 0
# Processed by: cddbd v1.5.1PL0 Copyright (c) Steve Scherf et al.
# Submitted via: FreeRIP 2.942 
#
DISCID=c60bdb0e
DTITLE=Adalberto e Adriano  - Historia de Amor
DYEAR=2005
DGENRE=Sertanejo
TTITLE0=Escrito no Ceu
TTITLE1=Feitiço
TTITLE2=Overdose de Alegria
TTITLE3=Culpados
TTITLE4=De saudade eu ja chorei
TTITLE5=la vai ele
TTITLE6=laçada
TTITLE7=historia de amor
TTITLE8=quem e que chora por mim
TTITLE9=bota lenha na fogueira
TTITLE10=minha vida nas ruas
TTITLE11=machao de cozinha
TTITLE12=xotear
TTITLE13=mae do brasil
EXTD=
EXTT0=
EXTT1=
EXTT2=
EXTT3=
EXTT4=
EXTT5=
EXTT6=
EXTT7=
EXTT8=
EXTT9=
EXTT10=
EXTT11=
EXTT12=
EXTT13=
PLAYORDER=
